<svg width="102" height="97" viewBox="0 0 102 97" fill="none" xmlns="http://www.w3.org/2000/svg">
<g filter="url(#filter0_d_928_9933)">
<path d="M65.3703 85.99C64.1903 86.34 62.9603 86.33 61.7303 86.22C60.0803 86.07 58.8503 85.3 58.1703 83.76C57.2503 81.68 56.7203 79.56 57.1603 77.25C57.4403 75.79 57.6303 74.32 57.8003 72.85C57.9003 71.99 57.9403 71.11 57.9403 70.24C57.9403 66.16 58.8703 62.23 59.8403 58.31C60.3903 56.08 61.0203 53.86 62.0503 51.8C63.7903 48.34 66.0803 45.32 69.4503 43.27C71.7703 41.87 73.7603 41.85 76.2403 44.11C76.8803 43.46 77.7303 43.21 78.6003 43.13C79.4603 43.06 80.3303 43.11 81.1403 43.11C82.4303 37.98 83.7203 32.81 85.0303 27.61C79.7603 26.73 76.2803 24.07 75.3503 18.59C72.8203 19.16 70.4103 18.48 68.0703 17.49C65.6903 16.49 63.6703 15.03 62.5003 12.51C60.2803 13.87 57.8703 14.24 55.3303 13.91C52.8703 13.59 50.4803 13.08 48.5603 11.34C45.1603 15.63 40.8503 16.32 35.7903 14.54C35.6303 15 35.4103 15.49 35.2703 16.01C34.4203 19.23 33.6103 22.46 32.7503 25.67C32.3703 27.1 31.9103 28.51 31.4603 29.99C33.0203 30.69 34.6703 31.35 35.3803 33.18C35.8503 33.1 36.3203 32.99 36.7903 32.95C38.8103 32.8 40.4303 33.58 41.4303 35.33C42.6303 37.44 43.6203 39.66 43.7903 42.14C43.8503 43.01 43.9803 43.87 44.0303 44.74C44.1503 47.29 43.5603 49.74 43.0303 52.21C41.9803 57.15 40.4703 61.96 38.7103 66.69C37.6503 69.53 36.1203 72.12 34.1803 74.44C33.5003 75.25 32.6803 75.96 31.8503 76.62C30.6003 77.61 29.1903 77.7 27.7303 77.11C26.5203 76.62 25.4003 75.98 24.6303 75.2C23.5903 75.14 22.7303 75.14 21.8903 75.03C19.7603 74.76 17.7003 74.25 15.7603 73.3C15.3003 73.07 14.8203 72.87 14.3303 72.7C12.4603 72.07 10.9903 70.87 9.70029 69.44C8.95029 68.61 8.51029 67.6 8.14029 66.56C7.95029 66.02 7.72029 65.53 7.33029 65.06C6.79029 64.4 6.38028 63.58 6.10028 62.77C5.51028 61.06 4.92028 59.34 4.56028 57.57C4.25028 56.03 4.22029 54.43 4.14029 52.85C3.82029 46.37 6.37027 40.94 10.3703 36.07C11.2503 35 12.2303 34.01 13.1603 32.96C13.3903 32.7 13.6003 32.4 13.7803 32.1C14.9103 30.13 16.5303 28.91 18.8203 28.54C21.0103 28.19 23.1903 28.12 25.3803 28.54C25.7203 28.6 26.0603 28.63 26.4803 28.69C26.1403 25.76 26.7203 23 26.9303 20.21C27.0303 18.79 27.0903 17.37 27.3203 15.97C27.4703 15.03 27.7703 14.07 28.1903 13.22C29.3203 10.92 30.9703 9 33.0803 7.54999C37.8703 4.25 43.0103 1.74 48.7603 0.599998C51.8103 -2.02656e-06 54.8703 -0.010002 57.9203 0.599998C60.6803 1.15 63.4403 1.69 66.1603 2.41C69.5403 3.31 72.7803 4.6 75.9303 6.12C78.7903 7.5 81.1803 9.52999 83.3203 11.86C86.6603 15.49 89.3803 19.52 91.2803 24.09C92.2003 26.31 92.5103 28.68 92.1903 31.05C92.0203 32.27 91.5203 33.48 91.0303 34.63C90.0603 36.92 89.0203 39.17 87.9603 41.42C87.4703 42.47 86.8803 43.47 86.3003 44.55C86.6603 44.68 87.0403 44.83 87.4203 44.96C89.8103 45.79 91.9103 47.07 93.7503 48.8C94.7003 49.7 95.3803 50.79 95.4703 52.09C95.6403 54.6 96.4103 56.97 96.8403 59.42C97.6103 63.81 97.3503 68.12 96.0003 72.37C95.4403 74.14 94.5003 75.73 93.4803 77.27C92.9803 78.02 92.5803 78.85 92.0203 79.56C90.2403 81.79 88.3203 83.93 85.7703 85.3C84.7003 85.87 83.8103 86.62 82.8503 87.31C81.1603 88.53 79.1903 89.07 77.1703 88.97C74.6903 88.84 72.1803 88.75 69.7903 87.94C68.5703 87.53 67.3703 87.04 66.1803 86.55C65.9003 86.43 65.6703 86.18 65.3903 85.98L65.3703 85.99ZM30.2603 31.26C29.6003 31.12 29.0703 30.99 28.5303 30.88C25.9303 30.35 23.3503 29.85 20.6603 29.92C17.2403 30.01 14.8703 31.47 13.5503 34.63C13.1003 35.7 12.6303 36.77 12.2103 37.86C10.5703 42.16 9.27029 46.55 8.58029 51.11C8.13029 54.06 8.08028 57.03 8.07028 60C8.07028 62.13 8.5303 64.16 9.2103 66.16C9.9403 68.3 11.3903 69.86 13.3603 70.83C15.1803 71.72 17.1303 72.35 19.0303 73.08C19.2503 73.16 19.5003 73.14 19.8103 73.18C19.6703 72.83 19.5803 72.6 19.4903 72.35C18.7203 70.25 18.1303 68.1 18.1303 65.84C18.1303 64.32 18.0903 62.81 18.1303 61.3C18.2003 58.78 18.4903 56.28 19.0503 53.82C20.1203 49.16 21.9003 44.77 24.0003 40.49C25.2503 37.95 26.7103 35.56 28.5003 33.37C29.0503 32.7 29.6103 32.03 30.2403 31.27L30.2603 31.26ZM70.4103 86.66C70.8503 86.78 71.2103 86.93 71.5703 86.98C73.1103 87.2 74.6503 87.41 76.1903 87.6C78.8303 87.93 81.2203 87.34 83.1903 85.49C84.1803 84.56 85.1703 83.6 85.9303 82.49C86.9803 80.98 87.8703 79.35 88.7203 77.72C89.8003 75.63 90.7703 73.48 91.5003 71.23C92.8303 67.16 93.7403 62.99 94.3103 58.75C94.5403 57.02 94.7903 55.29 94.5603 53.53C94.3803 52.17 93.9003 50.96 92.8603 50.03C91.3803 48.71 89.7203 47.64 87.8603 46.93C86.0203 46.23 84.1303 45.66 82.2603 45.04C82.1003 44.99 81.9103 45.01 81.7003 45C81.7303 45.21 81.7303 45.34 81.7603 45.46C82.3403 48.16 82.7903 50.87 82.6903 53.64C82.6103 55.97 82.5103 58.3 82.2803 60.62C81.8903 64.56 81.1603 68.44 79.7803 72.16C78.7303 75.01 77.4303 77.75 75.8403 80.35C74.8703 81.93 73.8503 83.45 72.4903 84.72C71.8403 85.33 71.1703 85.94 70.4103 86.65V86.66ZM27.0903 28.93C27.7703 29.09 28.3003 29.22 28.8303 29.34C29.3803 29.47 29.9403 29.59 30.5303 29.73C30.6503 29.32 30.7403 29.01 30.8203 28.7C31.4703 25.97 32.1003 23.23 32.7703 20.5C33.2503 18.52 33.7503 16.55 34.3003 14.59C34.6503 13.35 35.3503 12.28 36.3603 11.48C37.2703 10.76 38.1903 10.03 39.2003 9.46C41.8803 7.94 44.8303 7.21 47.8403 6.71C50.2303 6.31 52.6503 6.16 55.0803 6.1C57.3203 6.05 59.5503 6.10001 61.7303 6.64001C63.3903 7.05001 64.9903 7.67 66.6203 8.2C69.4103 9.11 71.9103 10.58 74.3703 12.14C76.8903 13.74 79.2503 15.53 81.3603 17.65C83.2703 19.57 84.9003 21.69 85.8503 24.27C86.3203 25.54 86.5603 26.83 86.2903 28.17C86.0603 29.31 85.8303 30.45 85.5203 31.57C84.5003 35.25 83.4303 38.91 82.3903 42.58C82.3103 42.85 82.2803 43.12 82.2103 43.45C83.3603 43.76 84.4303 44.05 85.4803 44.34C85.6103 44.16 85.6803 44.09 85.7203 44.01C87.3003 40.23 88.9103 36.46 90.4503 32.67C90.7703 31.87 91.0103 31 91.0703 30.14C91.2803 27.31 90.7503 24.61 89.4603 22.05C87.8203 18.79 85.7603 15.82 83.2203 13.19C80.4503 10.32 77.3103 8.01999 73.5603 6.54999C70.6403 5.41 67.7303 4.28001 64.7303 3.39001C63.8303 3.12001 62.9503 2.78 62.0303 2.63C59.5403 2.23 57.0503 1.88999 54.5503 1.57999C52.6803 1.34999 50.8103 1.47 48.9503 1.76C44.5903 2.45 40.5103 3.94001 36.7003 6.17001C34.0803 7.71001 31.7303 9.53 30.1003 12.18C29.1103 13.79 28.5703 15.5 28.4403 17.38C28.3303 19.08 28.1303 20.78 27.9303 22.48C27.6803 24.59 27.3903 26.69 27.1103 28.91L27.0903 28.93ZM76.6103 44.65C76.9403 45.44 77.2803 46.07 77.4603 46.75C78.1503 49.35 78.6003 52.01 78.5603 54.7C78.4703 59.87 77.6703 64.94 76.1903 69.9C75.5003 72.23 74.5603 74.45 73.4903 76.63C71.9503 79.77 70.1203 82.67 67.3303 84.87C67.1903 84.98 67.0803 85.13 66.9203 85.3C67.1903 85.42 67.4103 85.49 67.5903 85.61C68.2903 86.1 68.9303 86.04 69.6503 85.6C71.2203 84.63 72.4803 83.31 73.5203 81.83C74.9903 79.75 76.3603 77.6 77.4503 75.27C78.4303 73.16 79.4303 71.06 80.0003 68.79C81.8403 61.5 82.4403 54.12 81.3103 46.65C81.2103 45.99 81.0503 45.33 80.9203 44.68C79.4603 44.3 78.0703 44.14 76.6203 44.65H76.6103ZM30.9303 31.41C29.7103 33.07 28.4903 34.66 27.3403 36.3C25.6603 38.69 24.4703 41.36 23.2503 44C20.5503 49.82 18.9603 55.9 19.1203 62.36C19.1503 63.59 19.2903 64.81 19.3003 66.04C19.3103 68.08 19.8703 70.01 20.5603 71.89C20.9803 73.03 21.7003 73.92 23.1403 73.73C23.2503 73.71 23.3703 73.72 23.5003 73.71C23.4703 73.56 23.4603 73.46 23.4303 73.37C22.2603 70.61 21.8403 67.73 21.9103 64.75C21.9303 63.91 21.9703 63.07 22.0403 62.24C22.1803 60.67 22.2603 59.08 22.5403 57.53C23.3703 52.96 24.8103 48.58 26.7203 44.35C28.6003 40.17 31.0903 36.45 34.7503 33.46C33.8303 32.33 32.4903 31.84 30.9303 31.41ZM38.9103 53.66C38.9703 53.68 39.0203 53.69 39.0803 53.71C39.1503 53.58 39.2403 53.45 39.2903 53.31C40.7203 49.64 41.7003 45.86 42.2203 41.96C42.3403 41.07 42.3303 40.15 42.2703 39.25C42.2303 38.55 41.6303 38.36 41.0903 38.81C40.8903 38.97 40.7303 39.18 40.5803 39.39C40.1903 39.94 39.8203 40.51 39.4203 41.09C38.4603 40.84 37.5603 40.34 36.5503 40.45C37.3803 40.87 38.2003 41.3 39.0503 41.73C38.0103 44.2 37.0103 46.57 35.9603 49.09C35.0803 48.47 34.2803 47.92 33.4803 47.36C33.4403 47.4 33.4103 47.45 33.3703 47.49C34.1503 48.24 34.9303 48.99 35.7203 49.75C35.2303 51.52 34.7303 53.31 34.2103 55.16C33.6503 55 33.1703 54.91 32.7303 54.73C31.7203 54.34 30.7203 53.9 29.5503 53.41C30.7703 54.94 32.4003 55.53 33.9703 56.23C33.5303 58.34 33.1003 60.39 32.6703 62.47C30.8903 62.59 29.1703 62.41 27.4603 62.02C28.8503 63.41 30.7303 63.51 32.5603 63.93C32.3803 65.8 32.2003 67.62 32.0203 69.44C30.0803 69.82 28.2703 69.9 26.4303 69.4C26.6903 69.65 26.9603 69.88 27.2603 69.99C27.8403 70.2 28.4303 70.4 29.0303 70.49C29.9803 70.63 30.9503 70.68 31.9203 70.77C31.9303 70.91 31.9603 71.04 31.9603 71.17C31.9603 71.55 32.0503 71.89 32.4403 72.04C32.8603 72.2 33.2303 72.02 33.4803 71.72C33.8303 71.3 34.1903 70.86 34.4103 70.37C35.1003 68.77 35.8203 67.16 36.3403 65.5C36.7403 64.22 36.8503 62.86 37.0803 61.53C36.4403 62.44 35.9303 63.37 35.4903 64.33C35.0603 65.27 34.7303 66.26 34.3203 67.21C33.9203 68.16 33.6503 69.18 33.0103 70.05C33.0303 68.86 33.1403 67.71 33.3403 66.57C33.8403 63.73 34.3503 60.9 34.9003 58.07C35.8803 53.06 37.5603 48.27 39.5703 43.59C39.9803 42.64 40.4903 41.74 40.9703 40.82C41.0703 40.64 41.2203 40.48 41.4503 40.17C41.6003 41.52 41.4303 42.66 41.1603 43.78C40.6203 46.08 40.0103 48.36 39.4603 50.66C39.2203 51.66 39.0803 52.68 38.8903 53.69L38.9103 53.66ZM60.9003 75.78C60.6903 73.1 61.4203 70.51 61.3403 67.85C61.0303 68.52 60.7503 69.2 60.5903 69.91C60.0903 72.13 59.8803 74.38 59.8703 76.65C59.8703 76.91 59.8703 77.18 59.9503 77.42C60.0903 77.88 60.5903 78.02 60.9603 77.72C61.1103 77.6 61.2303 77.43 61.3103 77.26C62.0403 75.82 62.7603 74.37 63.4903 72.93C63.6003 72.71 63.7203 72.49 63.8303 72.27C65.6203 72.83 67.3103 73.68 69.2103 73.08C67.4603 72.64 65.8703 71.89 64.3803 70.96C64.9603 68.86 65.5203 66.85 66.0803 64.85C70.1203 65.14 70.5703 65.11 71.4303 64.44C69.6203 64.53 67.9203 64.26 66.2203 63.66C66.5803 61.6 66.9203 59.62 67.2803 57.66C67.6803 55.49 68.0403 53.32 67.9803 51.11C67.9703 50.63 67.9103 50.14 67.8103 49.67C67.7303 49.28 67.5203 48.94 67.0603 48.88C66.6203 48.82 66.2903 49.01 66.0703 49.36C65.7603 49.85 65.4203 50.34 65.2403 50.89C64.4103 53.37 63.6103 55.87 62.8403 58.37C62.6703 58.91 62.6303 59.5 62.5403 60.06C63.0303 59.29 63.3603 58.49 63.6603 57.67C64.4303 55.61 65.1703 53.54 65.9503 51.48C66.1303 51 66.4103 50.55 66.6803 50.12C66.7803 49.97 67.0003 49.89 67.3103 49.69C67.3403 50.17 67.4003 50.49 67.3703 50.8C67.2103 52.21 67.1203 53.64 66.8303 55.03C66.3503 57.37 65.6803 59.68 65.2103 62.02C64.4203 65.89 63.4703 69.72 62.2703 73.48C61.9903 74.35 61.5603 75.12 60.9003 75.78ZM6.9903 61.2C6.6203 52.06 9.14028 43.52 12.3203 35.11C12.1403 35.16 12.0203 35.22 11.9403 35.31C9.27028 38.35 7.22028 41.76 5.91028 45.61C5.29028 47.43 4.89028 49.29 5.00028 51.21C5.09028 52.91 5.19029 54.63 5.42029 56.31C5.65029 58 6.2303 59.61 6.9903 61.19V61.2ZM87.4603 82.16C87.5303 82.21 87.5903 82.26 87.6603 82.32C87.8803 82.15 88.1203 81.98 88.3303 81.8C89.9003 80.43 91.3103 78.93 92.4003 77.15C93.2203 75.8 94.1203 74.49 94.8103 73.07C96.0903 70.42 96.2803 67.53 96.4503 64.65C96.5903 62.34 96.2003 60.07 95.7703 57.81C95.7203 57.55 95.6503 57.3 95.5903 57.04C95.5203 57.04 95.4503 57.04 95.3903 57.05C94.1803 65.87 92.2003 74.46 87.4603 82.17V82.16ZM65.0703 12.12C65.6003 15.23 69.9403 16.45 72.3503 15.84C71.2403 15.35 70.3003 14.87 69.3103 14.52C68.2003 14.13 67.1703 13.63 66.2503 12.92C65.9203 12.67 65.5703 12.46 65.0803 12.13L65.0703 12.12ZM50.8503 10.23C51.1003 11.25 51.6603 11.69 52.4503 11.75C53.4503 11.82 54.4503 11.78 55.4503 11.77C56.3003 11.76 57.0103 11.45 57.4303 10.66C56.8103 10.21 56.1103 10.14 55.3903 10.26C54.8503 10.35 54.3103 10.46 53.7603 10.54C52.8203 10.68 51.8603 10.99 50.8403 10.23H50.8503ZM47.8003 10.36C46.5303 10.96 45.2803 11.59 43.9903 12.15C42.6703 12.73 41.3503 13.35 39.8103 13.38C41.5103 14.43 46.6503 12.57 47.7903 10.36H47.8003ZM77.0003 18.63C76.8603 20.66 78.8303 22.63 81.2703 23C80.1703 21.23 78.5503 20.04 77.0003 18.63ZM61.6403 78.76C63.2803 79.86 65.4003 80.4 66.4303 79.97C64.7203 79.66 63.3803 78.71 61.9803 77.81C61.8503 78.18 61.7503 78.45 61.6403 78.76ZM71.8003 49.79C70.8203 49.33 69.9503 49.18 69.0803 49.12C68.6503 49.09 68.7103 49.43 68.8303 49.79H71.8003ZM67.2703 58.12C68.7003 58.33 69.9303 58.07 70.6103 57.5C69.7203 57.54 68.7803 57.57 67.8603 57.65C67.6903 57.67 67.5303 57.9 67.2703 58.12Z" fill="white"/>
</g>
<defs>
<filter id="filter0_d_928_9933" x="0.113281" y="0.14624" width="101.156" height="96.8354" filterUnits="userSpaceOnUse" color-interpolation-filters="sRGB">
<feFlood flood-opacity="0" result="BackgroundImageFix"/>
<feColorMatrix in="SourceAlpha" type="matrix" values="0 0 0 0 0 0 0 0 0 0 0 0 0 0 0 0 0 0 127 0" result="hardAlpha"/>
<feOffset dy="4"/>
<feGaussianBlur stdDeviation="2"/>
<feComposite in2="hardAlpha" operator="out"/>
<feColorMatrix type="matrix" values="0 0 0 0 0 0 0 0 0 0 0 0 0 0 0 0 0 0 0.25 0"/>
<feBlend mode="normal" in2="BackgroundImageFix" result="effect1_dropShadow_928_9933"/>
<feBlend mode="normal" in="SourceGraphic" in2="effect1_dropShadow_928_9933" result="shape"/>
</filter>
</defs>
</svg>
